# xmcd
#
# Track frame offsets: 
#        150
#        19522
#        37190
#        56250
#        72742
#        88660
#        105225
#        116970
#        134810
#        149980
#        163525
#        176112
#
# Disc length: 2547 seconds
#
# Revision: 4
# Processed by: cddbd v1.5.2PL0 Copyright (c) Steve Scherf et al.
# Submitted via: ExactAudioCopyFreeDBPlugin 1.0
#
DISCID=b809f10c
DTITLE=Kenny Rogers - The Best Of Kenny Rogers: The Millennium Collect
DTITLE=ion
DYEAR=2004
DGENRE=Pop
TTITLE0=Crazy In Love
TTITLE1=Lady
TTITLE2=She Believes In Me
TTITLE3=You Decorated My Life
TTITLE4=The Gambler
TTITLE5=Lucille
TTITLE6=Someone Who Cares
TTITLE7=Kenny Rogers and The First Edition - Something's Burning
TTITLE8=Kenny Rogers and The First Edition - Tell It All Brother
TTITLE9=Kenny Rogers and The First Edition - Ruby, Don't Take Your Love 
TTITLE9=To Town
TTITLE10=Kenny Rogers and The First Edition - Ruben James
TTITLE11=The First Edition - Just Dropped In (To See What Condition My
TTITLE11=Condition Is In)
EXTD=YEAR: 2004
EXTT0=
EXTT1=
EXTT2=
EXTT3=
EXTT4=
EXTT5=
EXTT6=
EXTT7=
EXTT8=
EXTT9=
EXTT10=
EXTT11=
PLAYORDER=
